<svg width="225" height="63" viewBox="0 0 225 63" fill="none" xmlns="http://www.w3.org/2000/svg">
<path d="M28.3159 1L57.7005 47.3343L62.8816 18.0583L28.3159 1ZM63.9295 19.1125L58.7483 48.3886L74.0799 47.6144L63.9295 19.1125ZM79.3733 28.0155L69.4939 31.3088L75.1277 47.6144L79.3733 28.0155ZM80.527 28.0395L79.2371 33.5592L85.7296 33.7607L80.527 28.0395ZM74.0799 48.8929L58.7483 49.6659L67.5143 63L74.0799 48.8929ZM57.4773 49.6659L40.0753 61.0904L63.0708 58.3965L57.4773 49.6659Z" fill="url(#paint0_linear_20_6)"/>
<path d="M104.678 33.1513C104.637 33.1959 104.617 33.248 104.617 33.3075V40.864C104.617 40.9236 104.637 40.9756 104.678 41.0203C104.723 41.0612 104.775 41.0817 104.835 41.0817C104.895 41.0817 104.945 41.0612 104.987 41.0203C105.028 40.9756 105.048 40.9236 105.048 40.864V33.3075C105.048 33.248 105.028 33.1959 104.987 33.1513C104.945 33.1103 104.895 33.0899 104.835 33.0899C104.775 33.0899 104.723 33.1103 104.678 33.1513ZM103.86 40.8639C103.86 40.9234 103.839 40.9755 103.798 41.0201C103.757 41.061 103.706 41.0815 103.647 41.0815C103.587 41.0815 103.535 41.061 103.49 41.0201C103.449 40.9755 103.428 40.9234 103.428 40.8639V33.3074C103.428 33.2478 103.449 33.1957 103.49 33.1511C103.535 33.1102 103.587 33.0897 103.647 33.0897C103.706 33.0897 103.757 33.1102 103.798 33.1511C103.839 33.1957 103.86 33.2478 103.86 33.3074L103.86 40.8639ZM113.237 34.6022C113.278 34.6543 113.332 34.6803 113.4 34.6803C113.452 34.6803 113.497 34.6617 113.534 34.6245C113.579 34.5873 113.605 34.539 113.613 34.4794C113.616 34.4199 113.6 34.3678 113.562 34.3232L112.547 33.1512C112.506 33.1066 112.456 33.0824 112.396 33.0787C112.34 33.0749 112.29 33.0917 112.245 33.1289C112.2 33.1661 112.174 33.2145 112.166 33.274C112.162 33.3335 112.181 33.3856 112.222 33.4303L113.237 34.6022ZM113.237 36.3825C113.278 36.4309 113.332 36.4551 113.4 36.4551C113.452 36.4551 113.497 36.4383 113.534 36.4048C113.579 36.3676 113.605 36.3193 113.613 36.2597C113.616 36.2002 113.6 36.1481 113.562 36.1035L111.011 33.1513C110.97 33.1066 110.921 33.0824 110.865 33.0787C110.806 33.075 110.753 33.0917 110.708 33.129C110.664 33.1662 110.639 33.2145 110.636 33.2741C110.628 33.3336 110.645 33.3857 110.686 33.4303L113.237 36.3825ZM113.237 38.1628C113.278 38.2112 113.332 38.2353 113.4 38.2353C113.452 38.2353 113.497 38.2186 113.534 38.1851C113.579 38.1479 113.605 38.0996 113.613 38.04C113.616 37.9805 113.6 37.9284 113.562 37.8838L109.475 33.1513C109.434 33.1066 109.385 33.0824 109.329 33.0787C109.269 33.075 109.217 33.0917 109.172 33.129C109.127 33.1662 109.103 33.2145 109.099 33.2741C109.096 33.3336 109.112 33.3857 109.15 33.4303L113.237 38.1628ZM114.504 40.8694C114.504 40.9662 114.457 41.0331 114.364 41.0703C114.342 41.0778 114.317 41.0815 114.291 41.0815C114.224 41.0815 114.17 41.0573 114.128 41.009L107.967 33.8656V40.8695C107.967 40.9291 107.945 40.9793 107.9 41.0202C107.859 41.0611 107.808 41.0816 107.748 41.0816C107.689 41.0816 107.638 41.0611 107.597 41.0202C107.556 40.9793 107.535 40.9291 107.535 40.8695V33.2907C107.535 33.1903 107.582 33.1233 107.676 33.0898C107.769 33.0563 107.847 33.0768 107.911 33.1512L114.078 40.2945V33.2907C114.078 33.2311 114.099 33.1809 114.14 33.14C114.181 33.099 114.231 33.0786 114.291 33.0786C114.351 33.0786 114.401 33.099 114.443 33.14C114.484 33.1809 114.504 33.2311 114.504 33.2907L114.504 40.8694ZM122.727 34.5799C122.787 34.5799 122.837 34.5595 122.878 34.5185C122.919 34.4776 122.94 34.4274 122.94 34.3679C122.94 34.3083 122.919 34.2581 122.878 34.2172C122.837 34.1725 122.787 34.1502 122.727 34.1502H119.043C118.778 34.1502 118.552 34.2432 118.365 34.4293C118.178 34.6153 118.085 34.8404 118.085 35.1045V35.2608C118.085 35.5212 118.178 35.7444 118.365 35.9304C118.552 36.1202 118.778 36.2151 119.043 36.2151H120.193C120.252 36.2151 120.305 36.1927 120.35 36.1481C120.391 36.1072 120.411 36.0569 120.411 35.9974C120.411 35.9379 120.391 35.8877 120.35 35.8467C120.305 35.8058 120.252 35.7854 120.193 35.7854H119.043C118.898 35.7854 118.772 35.7333 118.668 35.6291C118.567 35.5286 118.516 35.4059 118.516 35.2608V35.1045C118.516 34.9594 118.567 34.8366 118.668 34.7362C118.772 34.632 118.898 34.5799 119.043 34.5799L122.727 34.5799ZM117.664 39.5747C117.605 39.5747 117.554 39.5952 117.513 39.6361C117.472 39.677 117.451 39.7273 117.451 39.7868C117.451 39.8463 117.472 39.8965 117.513 39.9375C117.554 39.9821 117.605 40.0044 117.664 40.0044H121.348C121.613 40.0044 121.839 39.9114 122.026 39.7254C122.213 39.5357 122.307 39.3106 122.307 39.0501V38.8939C122.307 38.6334 122.213 38.4102 122.026 38.2242C121.839 38.0344 121.613 37.9396 121.348 37.9396H120.193C120.137 37.9396 120.086 37.9619 120.042 38.0065C120 38.0475 119.98 38.0977 119.98 38.1572C119.98 38.2167 120 38.267 120.042 38.3079C120.086 38.3488 120.137 38.3693 120.193 38.3693H121.348C121.494 38.3693 121.619 38.4214 121.723 38.5255C121.824 38.626 121.875 38.7488 121.875 38.8939V39.0501C121.875 39.1952 121.824 39.318 121.723 39.4185C121.619 39.5226 121.494 39.5747 121.348 39.5747L117.664 39.5747ZM123.4 39.1506C123.4 39.6826 123.209 40.1384 122.828 40.5179C122.45 40.8936 121.994 41.0815 121.46 41.0815H117.653C117.593 41.0815 117.543 41.061 117.502 41.0201C117.46 40.9755 117.44 40.9253 117.44 40.8694C117.44 40.8099 117.46 40.7578 117.502 40.7132C117.543 40.6723 117.593 40.6518 117.653 40.6518H121.46C121.875 40.6518 122.23 40.5048 122.525 40.2109C122.82 39.917 122.968 39.5635 122.968 39.1506V38.7934C122.968 38.3804 122.82 38.027 122.525 37.7331C122.23 37.4391 121.875 37.2922 121.46 37.2922H118.774C118.748 37.2922 118.72 37.2847 118.69 37.2699C118.212 37.2066 117.814 36.9945 117.496 36.6337C117.171 36.269 117.008 35.8449 117.008 35.3612V35.0041C117.008 34.4721 117.197 34.0163 117.574 33.6368C117.956 33.261 118.414 33.0732 118.948 33.0732H122.749C122.809 33.0732 122.861 33.0936 122.906 33.1345C122.947 33.1755 122.968 33.2257 122.968 33.2852C122.968 33.3447 122.947 33.3968 122.906 33.4415C122.861 33.4824 122.809 33.5029 122.749 33.5029H118.948C118.533 33.5029 118.178 33.6498 117.883 33.9437C117.587 34.2377 117.44 34.5911 117.44 35.0041V35.3613C117.44 35.7742 117.587 36.1277 117.883 36.4216C118.178 36.7155 118.533 36.8625 118.948 36.8625H121.628C121.658 36.8625 121.688 36.8699 121.718 36.8848C122.192 36.9481 122.591 37.1601 122.912 37.521C123.237 37.8856 123.4 38.3098 123.4 38.7934L123.4 39.1506ZM126.078 34.2393C126.018 34.2393 125.965 34.2617 125.921 34.3063C125.88 34.3472 125.859 34.3975 125.859 34.457C125.859 34.5165 125.88 34.5667 125.921 34.6077C125.965 34.6523 126.018 34.6746 126.078 34.6746H128.432V40.8636C128.432 40.9231 128.453 40.9752 128.494 41.0199C128.539 41.0608 128.591 41.0813 128.651 41.0813C128.707 41.0813 128.758 41.0608 128.802 41.0199C128.844 40.9752 128.864 40.9231 128.864 40.8636V34.6746H129.621V40.8636C129.621 40.9231 129.642 40.9752 129.683 41.0199C129.724 41.0608 129.774 41.0813 129.834 41.0813C129.894 41.0813 129.946 41.0608 129.991 41.0199C130.032 40.9752 130.053 40.9231 130.053 40.8636V34.6746H132.408C132.467 34.6746 132.52 34.6523 132.565 34.6077C132.606 34.5667 132.626 34.5165 132.626 34.457C132.626 34.3975 132.606 34.3472 132.565 34.3063C132.52 34.2617 132.467 34.2393 132.408 34.2393L126.078 34.2393ZM125.921 33.1347C125.965 33.0938 126.018 33.0733 126.078 33.0733H132.407C132.467 33.0733 132.519 33.0938 132.564 33.1347C132.605 33.1793 132.626 33.2314 132.626 33.291C132.626 33.3505 132.605 33.4007 132.564 33.4416C132.519 33.4826 132.467 33.503 132.407 33.503H126.078C126.018 33.503 125.965 33.4826 125.921 33.4416C125.879 33.4007 125.859 33.3505 125.859 33.291C125.859 33.2314 125.879 33.1793 125.921 33.1347ZM140.21 38.9441C140.169 38.9888 140.118 39.0111 140.058 39.0111H137.726L136.806 40.9587C136.765 41.0406 136.7 41.0815 136.61 41.0815C136.577 41.0815 136.545 41.0759 136.515 41.0648C136.463 41.0387 136.427 40.9978 136.408 40.942C136.386 40.8862 136.388 40.8323 136.414 40.7802L137.389 38.7041C137.431 38.6223 137.496 38.5814 137.586 38.5814H140.058C140.118 38.5814 140.168 38.6018 140.21 38.6428C140.251 38.6837 140.271 38.7339 140.271 38.7934C140.271 38.853 140.251 38.9032 140.21 38.9441ZM143.389 41.1429C143.295 41.1429 143.23 41.1001 143.193 41.0145L139.857 33.4637C139.834 33.4079 139.832 33.3521 139.851 33.2963C139.874 33.2405 139.913 33.2015 139.969 33.1791C140.021 33.1568 140.075 33.1549 140.131 33.1736C140.187 33.1959 140.229 33.2349 140.255 33.2907L143.585 40.8415C143.611 40.8973 143.613 40.9513 143.591 41.0034C143.568 41.0592 143.529 41.1001 143.473 41.1262C143.447 41.1373 143.419 41.1429 143.389 41.1429ZM137.07 37.4987L138.679 33.8545L140.288 37.4987H137.07ZM138.875 33.2296L138.87 33.2184L138.858 33.2072L138.847 33.1849L138.83 33.1682L138.814 33.1514L138.791 33.1403L138.78 33.1291L138.769 33.1235L138.763 33.1179L138.741 33.1124L138.713 33.1068H138.696L138.679 33.1012L138.662 33.1068H138.645L138.623 33.1124L138.601 33.1179L138.595 33.1235L138.578 33.1291L138.567 33.1403L138.544 33.1514L138.528 33.1682L138.511 33.1849L138.5 33.2072L138.488 33.2184L138.483 33.2296L135.147 40.7803C135.124 40.8362 135.124 40.892 135.147 40.9478C135.169 41.0036 135.207 41.0426 135.259 41.065C135.289 41.0761 135.319 41.0817 135.349 41.0817C135.442 41.0817 135.508 41.0389 135.545 40.9533L136.879 37.9286H140.479L141.819 40.9533C141.856 41.0389 141.922 41.0817 142.015 41.0817C142.045 41.0817 142.073 41.0761 142.099 41.065C142.155 41.0426 142.194 41.0036 142.217 40.9478C142.236 40.892 142.234 40.8362 142.211 40.7803L138.875 33.2296ZM152.581 33.1347C152.54 33.1756 152.519 33.2258 152.519 33.2854V40.8693C152.519 40.9288 152.54 40.9791 152.581 41.02C152.622 41.0609 152.673 41.0814 152.732 41.0814C152.792 41.0814 152.843 41.0609 152.884 41.02C152.925 40.9791 152.945 40.9288 152.945 40.8693V33.2854C152.945 33.2258 152.925 33.1756 152.884 33.1347C152.843 33.0938 152.792 33.0733 152.732 33.0733C152.673 33.0733 152.622 33.0938 152.581 33.1347ZM151.51 33.1347C151.469 33.1756 151.449 33.2258 151.449 33.2854V35.925H147.322C147.262 35.925 147.212 35.9455 147.171 35.9864C147.126 36.0273 147.104 36.0776 147.104 36.1371C147.104 36.1966 147.126 36.2469 147.171 36.2878C147.212 36.3287 147.262 36.3492 147.322 36.3492H151.449V37.1305H147.322C147.262 37.1305 147.212 37.1509 147.171 37.1919C147.126 37.2328 147.104 37.283 147.104 37.3425V40.8696C147.104 40.9291 147.126 40.9793 147.171 41.0203C147.212 41.0612 147.262 41.0816 147.322 41.0816C147.378 41.0816 147.429 41.0612 147.474 41.0203C147.515 40.9793 147.535 40.9291 147.535 40.8696V37.5602H151.449V40.8696C151.449 40.9291 151.469 40.9793 151.51 41.0203C151.551 41.0612 151.602 41.0816 151.662 41.0816C151.721 41.0816 151.772 41.0612 151.813 41.0203C151.854 40.9793 151.875 40.9291 151.875 40.8696V33.2856C151.875 33.2261 151.854 33.1759 151.813 33.135C151.772 33.094 151.721 33.0736 151.662 33.0736C151.602 33.0736 151.551 33.0938 151.51 33.1347ZM146.464 40.8694C146.464 40.929 146.442 40.9792 146.397 41.0201C146.356 41.061 146.306 41.0815 146.246 41.0815C146.186 41.0815 146.135 41.061 146.094 41.0201C146.053 40.9792 146.033 40.929 146.033 40.8694V33.2855C146.033 33.226 146.053 33.1758 146.094 33.1348C146.135 33.0939 146.186 33.0734 146.246 33.0734C146.306 33.0734 146.356 33.0939 146.397 33.1348C146.442 33.1758 146.464 33.226 146.464 33.2855V40.8694ZM160.524 38.9441C160.482 38.9888 160.432 39.0111 160.372 39.0111H158.04L157.12 40.9587C157.079 41.0406 157.014 41.0815 156.924 41.0815C156.89 41.0815 156.859 41.0759 156.829 41.0648C156.776 41.0387 156.741 40.9978 156.722 40.942C156.7 40.8862 156.702 40.8323 156.728 40.7802L157.703 38.7041C157.745 38.6223 157.81 38.5814 157.9 38.5814H160.372C160.432 38.5814 160.482 38.6018 160.524 38.6428C160.565 38.6837 160.585 38.7339 160.585 38.7934C160.585 38.853 160.565 38.9032 160.524 38.9441ZM163.703 41.1429C163.609 41.1429 163.544 41.1001 163.507 41.0145L160.171 33.4637C160.148 33.4079 160.146 33.3521 160.165 33.2963C160.187 33.2405 160.227 33.2015 160.283 33.1791C160.335 33.1568 160.389 33.1549 160.445 33.1736C160.501 33.1959 160.543 33.2349 160.569 33.2907L163.899 40.8415C163.925 40.8973 163.927 40.9513 163.905 41.0034C163.882 41.0592 163.843 41.1001 163.787 41.1262C163.761 41.1373 163.733 41.1429 163.703 41.1429ZM157.384 37.4987L158.993 33.8545L160.602 37.4987H157.384ZM159.189 33.2296L159.184 33.2184L159.172 33.2072L159.161 33.1849L159.144 33.1682L159.128 33.1514L159.105 33.1403L159.094 33.1291L159.083 33.1235L159.077 33.1179L159.055 33.1124L159.027 33.1068H159.01L158.993 33.1012L158.976 33.1068H158.959L158.937 33.1124L158.914 33.1179L158.909 33.1235L158.892 33.1291L158.881 33.1403L158.858 33.1514L158.842 33.1682L158.825 33.1849L158.814 33.2072L158.802 33.2184L158.797 33.2296L155.461 40.7803C155.438 40.8362 155.438 40.892 155.461 40.9478C155.483 41.0036 155.521 41.0426 155.573 41.065C155.603 41.0761 155.633 41.0817 155.663 41.0817C155.756 41.0817 155.822 41.0389 155.859 40.9533L157.193 37.9286H160.793L162.133 40.9533C162.17 41.0389 162.235 41.0817 162.329 41.0817C162.359 41.0817 162.387 41.0761 162.413 41.065C162.469 41.0426 162.508 41.0036 162.531 40.9478C162.549 40.892 162.548 40.8362 162.525 40.7803L159.189 33.2296ZM172.032 34.6022C172.073 34.6543 172.127 34.6803 172.194 34.6803C172.246 34.6803 172.291 34.6617 172.329 34.6245C172.374 34.5873 172.4 34.539 172.407 34.4794C172.411 34.4199 172.394 34.3678 172.357 34.3232L171.342 33.1512C171.301 33.1066 171.25 33.0824 171.19 33.0787C171.134 33.0749 171.084 33.0917 171.039 33.1289C170.994 33.1661 170.968 33.2145 170.961 33.274C170.957 33.3335 170.976 33.3856 171.017 33.4303L172.032 34.6022ZM172.032 36.3825C172.073 36.4309 172.127 36.4551 172.194 36.4551C172.246 36.4551 172.291 36.4383 172.329 36.4048C172.374 36.3676 172.4 36.3193 172.407 36.2597C172.411 36.2002 172.394 36.1481 172.357 36.1035L169.806 33.1513C169.765 33.1066 169.716 33.0824 169.66 33.0787C169.6 33.075 169.548 33.0917 169.503 33.129C169.458 33.1662 169.434 33.2145 169.43 33.2741C169.423 33.3336 169.439 33.3857 169.48 33.4303L172.032 36.3825ZM172.032 38.1628C172.073 38.2112 172.127 38.2353 172.194 38.2353C172.246 38.2353 172.291 38.2186 172.329 38.1851C172.374 38.1479 172.4 38.0996 172.407 38.04C172.411 37.9805 172.394 37.9284 172.357 37.8838L168.269 33.1513C168.228 33.1066 168.18 33.0824 168.124 33.0787C168.064 33.075 168.012 33.0917 167.967 33.129C167.922 33.1662 167.898 33.2145 167.894 33.2741C167.89 33.3336 167.907 33.3857 167.944 33.4303L172.032 38.1628ZM173.299 40.8694C173.299 40.9662 173.252 41.0331 173.158 41.0703C173.136 41.0778 173.112 41.0815 173.086 41.0815C173.018 41.0815 172.964 41.0573 172.923 41.009L166.762 33.8656V40.8695C166.762 40.9291 166.739 40.9793 166.694 41.0202C166.653 41.0611 166.603 41.0816 166.543 41.0816C166.483 41.0816 166.433 41.0611 166.391 41.0202C166.35 40.9793 166.33 40.9291 166.33 40.8695V33.2907C166.33 33.1903 166.377 33.1233 166.47 33.0898C166.563 33.0563 166.642 33.0768 166.705 33.1512L172.873 40.2945V33.2907C172.873 33.2311 172.893 33.1809 172.934 33.14C172.975 33.099 173.026 33.0786 173.086 33.0786C173.145 33.0786 173.196 33.099 173.237 33.14C173.278 33.1809 173.299 33.2311 173.299 33.2907L173.299 40.8694ZM182.43 36.0644C182.43 35.3575 182.183 34.753 181.689 34.2507C181.196 33.7484 180.602 33.4973 179.907 33.4973H177.322V39.5691C177.359 39.5431 177.397 39.53 177.434 39.53H179.492C179.985 39.53 180.406 39.3608 180.753 39.0222C181.101 38.6799 181.275 38.2688 181.275 37.7889V36.3602C181.275 35.884 181.101 35.4747 180.753 35.1324C180.406 34.7939 179.985 34.6246 179.492 34.6246H178.292C178.232 34.6246 178.182 34.6023 178.14 34.5576C178.099 34.5167 178.079 34.4665 178.079 34.4069C178.079 34.3511 178.099 34.3009 178.14 34.2563C178.182 34.2153 178.232 34.1949 178.292 34.1949H179.492C180.101 34.1949 180.622 34.4069 181.056 34.8311C181.486 35.2552 181.701 35.7649 181.701 36.3602V37.7889C181.701 38.3879 181.486 38.8994 181.056 39.3236C180.622 39.7477 180.101 39.9598 179.492 39.9598H177.434C177.397 39.9598 177.359 39.9467 177.322 39.9207V40.6518H179.907C180.602 40.6518 181.196 40.4025 181.689 39.904C182.183 39.4017 182.43 38.7971 182.43 38.0902L182.43 36.0644ZM182.856 38.0902C182.856 38.9162 182.568 39.6212 181.993 40.2053C181.417 40.7894 180.722 41.0815 179.907 41.0815H177.109C177.05 41.0815 176.999 41.061 176.958 41.0201C176.913 40.9792 176.891 40.929 176.891 40.8694V33.2855C176.891 33.226 176.913 33.1757 176.958 33.1348C176.999 33.0939 177.05 33.0734 177.109 33.0734H179.907C180.722 33.0734 181.417 33.3655 181.993 33.9496C182.568 34.5337 182.856 35.2388 182.856 36.0647V38.0902ZM176.251 40.8694C176.251 40.929 176.229 40.9792 176.184 41.0201C176.143 41.061 176.092 41.0815 176.033 41.0815C175.973 41.0815 175.922 41.061 175.881 41.0201C175.84 40.9792 175.82 40.929 175.82 40.8694V33.3632C175.82 33.3037 175.84 33.2535 175.881 33.2126C175.922 33.1716 175.973 33.1512 176.033 33.1512C176.092 33.1512 176.143 33.1716 176.184 33.2126C176.229 33.2535 176.251 33.3037 176.251 33.3632V40.8694ZM186.616 33.1513C186.575 33.1959 186.554 33.248 186.554 33.3075V40.864C186.554 40.9236 186.575 40.9756 186.616 41.0203C186.661 41.0612 186.713 41.0817 186.773 41.0817C186.832 41.0817 186.883 41.0612 186.924 41.0203C186.965 40.9756 186.986 40.9236 186.986 40.864V33.3075C186.986 33.248 186.965 33.1959 186.924 33.1513C186.883 33.1103 186.832 33.0899 186.773 33.0899C186.713 33.0899 186.661 33.1103 186.616 33.1513ZM185.797 40.8639C185.797 40.9234 185.777 40.9755 185.735 41.0201C185.694 41.061 185.644 41.0815 185.584 41.0815C185.524 41.0815 185.472 41.061 185.427 41.0201C185.386 40.9755 185.365 40.9234 185.365 40.8639V33.3074C185.365 33.2478 185.386 33.1957 185.427 33.1511C185.472 33.1102 185.524 33.0897 185.584 33.0897C185.644 33.0897 185.694 33.1102 185.735 33.1511C185.777 33.1957 185.797 33.2478 185.797 33.3074V40.8639Z" fill="url(#paint1_linear_20_6)"/>
<path d="M98.1684 53.3879C98.2176 53.3879 98.2114 53.5411 98.1684 53.5595C97.8237 53.6881 97.3129 53.6452 96.9745 53.2103L96.0144 51.9852C95.756 51.6544 95.4175 51.5931 94.9682 51.587V52.7876C94.9682 53.2164 95.2513 53.2899 95.6637 53.3389C95.7067 53.3451 95.676 53.5288 95.6267 53.5288H93.8482C93.799 53.5288 93.7621 53.3451 93.8113 53.3389C94.1128 53.2961 94.3282 53.1858 94.3282 52.7876V50.0188C94.3282 49.6146 94.1128 49.4982 93.8113 49.4185C93.7621 49.4063 93.7928 49.2225 93.8482 49.2286C94.0944 49.2593 94.3652 49.2654 94.5498 49.2654C94.9621 49.2654 95.356 49.2286 95.639 49.2286C96.5191 49.2286 97.1652 49.5962 97.1652 50.3619C97.1652 51.0908 96.556 51.44 96.0883 51.4706V51.5012C96.316 51.5012 96.4698 51.5993 96.7283 51.9239L97.676 53.1C97.8483 53.3206 98.0145 53.3879 98.1684 53.3879ZM95.159 51.3236C96.0821 51.3236 96.4883 51.1643 96.4883 50.5211C96.4883 49.8535 96.0452 49.5227 95.479 49.5227C95.1036 49.5227 94.9682 49.6697 94.9682 50.0188V51.3236H95.159ZM98.513 53.5411C98.4514 53.5472 98.4268 53.3573 98.4761 53.3451C98.8391 53.2532 99.1161 53.198 99.1161 52.7447V50.0005C99.1161 49.5901 98.8638 49.4859 98.593 49.4185C98.5438 49.4063 98.5684 49.2225 98.6299 49.2286C99.0792 49.2654 99.7376 49.2654 100.193 49.2654C100.753 49.2654 101.172 49.2409 101.658 49.2286C101.799 49.2286 101.799 49.3267 101.768 49.4614L101.615 50.0433C101.596 50.123 101.448 50.123 101.424 50.0433C101.338 49.7554 101.141 49.5533 100.359 49.5533C99.8976 49.5533 99.7561 49.6636 99.7561 50.0005V51.0173C99.7561 51.1766 99.8361 51.2072 99.9592 51.2072H100.076C100.624 51.2072 101.036 51.1705 101.307 50.9132C101.362 50.8581 101.492 50.8703 101.442 50.9867L101.079 51.7585C101.036 51.8627 100.95 51.8504 100.882 51.7585C100.735 51.5686 100.415 51.4951 100.027 51.4951H99.9592C99.8361 51.4951 99.7561 51.5257 99.7561 51.685V52.7447C99.7561 53.1 99.9161 53.2164 100.445 53.2164C101.442 53.2164 101.762 52.8183 101.916 52.561C101.965 52.4813 102.113 52.4997 102.113 52.6161C102.113 52.953 101.855 53.535 101.479 53.5411C101.184 53.5227 100.79 53.5043 100.261 53.5043C99.6946 53.5043 99.0792 53.4859 98.513 53.5411ZM108.138 54.6253C108.243 54.5702 108.298 54.7172 108.267 54.7601C108.058 55.048 107.153 55.1215 106.636 54.7294L105.578 53.9331C105.319 53.7432 105.116 53.6268 104.895 53.6268C103.621 53.6207 102.698 52.6712 102.698 51.4032C102.698 50.172 103.572 49.1429 104.919 49.1429C106.206 49.1429 107.129 50.0924 107.129 51.3604C107.129 52.2976 106.636 53.1123 105.806 53.4553C105.904 53.4676 105.941 53.4982 105.99 53.535L107.03 54.3068C107.572 54.7049 107.916 54.7356 108.138 54.6253ZM103.338 51.0847C103.338 52.365 104.205 53.2532 105.135 53.2532C105.701 53.2532 106.495 52.8918 106.495 51.6789C106.495 50.4109 105.621 49.5165 104.698 49.5165C104.125 49.5165 103.338 49.878 103.338 51.0847ZM110.089 53.6268C109.239 53.6268 108.279 53.1735 108.279 51.93V49.9821C108.279 49.5839 108.064 49.4675 107.775 49.4308C107.726 49.4247 107.763 49.2409 107.812 49.2409H109.399C109.449 49.2409 109.486 49.4247 109.436 49.4308C109.19 49.4614 108.944 49.5533 108.944 49.9821V51.9607C108.944 52.8305 109.455 53.2532 110.144 53.2532C110.852 53.2532 111.4 52.8305 111.4 51.9607V49.9821C111.4 49.5778 111.172 49.4737 110.87 49.4308C110.827 49.4247 110.858 49.2409 110.907 49.2409H112.249C112.298 49.2409 112.335 49.4247 112.286 49.4308C112.027 49.4614 111.781 49.5533 111.781 49.9821V51.93C111.781 53.051 111.055 53.6268 110.089 53.6268ZM112.741 53.5411C112.68 53.5472 112.655 53.3573 112.704 53.3451C113.067 53.2532 113.344 53.198 113.344 52.7447V50.0005C113.344 49.5901 113.092 49.4859 112.821 49.4185C112.772 49.4063 112.797 49.2225 112.858 49.2286C113.307 49.2654 113.966 49.2654 114.421 49.2654C114.981 49.2654 115.4 49.2409 115.886 49.2286C116.027 49.2286 116.027 49.3267 115.997 49.4614L115.843 50.0433C115.824 50.123 115.677 50.123 115.652 50.0433C115.566 49.7554 115.369 49.5533 114.587 49.5533C114.126 49.5533 113.984 49.6636 113.984 50.0005V51.0173C113.984 51.1766 114.064 51.2072 114.187 51.2072H114.304C114.852 51.2072 115.264 51.1705 115.535 50.9132C115.59 50.8581 115.72 50.8703 115.67 50.9867L115.307 51.7585C115.264 51.8627 115.178 51.8504 115.11 51.7585C114.963 51.5686 114.643 51.4951 114.255 51.4951H114.187C114.064 51.4951 113.984 51.5257 113.984 51.685V52.7447C113.984 53.1 114.144 53.2164 114.674 53.2164C115.67 53.2164 115.99 52.8183 116.144 52.561C116.194 52.4813 116.341 52.4997 116.341 52.6161C116.341 52.953 116.083 53.535 115.707 53.5411C115.412 53.5227 115.018 53.5043 114.489 53.5043C113.923 53.5043 113.307 53.4859 112.741 53.5411ZM118.144 53.6268C117.634 53.6268 116.895 53.3941 116.963 53.1368L117.018 52.9224C117.184 52.3282 117.369 53.2225 118.384 53.2225C118.92 53.2225 119.221 52.9653 119.221 52.5794C119.221 52.2608 118.987 52.1199 118.594 51.8872L117.904 51.4706C117.277 51.0908 117.031 50.8213 117.031 50.3986C117.031 49.6697 117.732 49.1429 118.514 49.1429C118.987 49.1429 119.566 49.3389 119.504 49.5472L119.431 49.7738C119.258 50.3251 119.098 49.541 118.255 49.541C117.781 49.541 117.541 49.7861 117.541 50.1169C117.541 50.3864 117.707 50.5457 118.12 50.7968L118.84 51.2256C119.468 51.5993 119.72 51.881 119.72 52.3037C119.72 53.051 118.969 53.6268 118.144 53.6268ZM121.209 53.5288C121.154 53.5288 121.117 53.3512 121.166 53.3451C121.584 53.2961 121.868 53.2042 121.868 52.8734V49.8045C121.868 49.6574 121.818 49.6084 121.671 49.6084H121.474C120.852 49.6084 120.575 49.7126 120.434 50.0066C120.378 50.1169 120.194 50.0985 120.212 50.0066C120.261 49.7677 120.311 49.6023 120.348 49.2899C120.36 49.1858 120.434 49.1919 120.538 49.2041C120.772 49.2286 121.08 49.2409 122.218 49.2409C123.357 49.2409 123.812 49.2286 124.046 49.2041C124.157 49.1919 124.262 49.1858 124.225 49.2899C124.138 49.5717 124.077 49.7738 124.04 50.0066C124.022 50.1107 123.868 50.1046 123.849 50.0066C123.788 49.7187 123.535 49.6084 122.988 49.6084H122.766C122.618 49.6084 122.532 49.6574 122.532 49.8045V52.8734C122.532 53.2042 122.821 53.2961 123.234 53.3451C123.283 53.3512 123.246 53.5288 123.191 53.5288H121.209ZM124.803 54.4538C124.742 54.4967 124.588 54.3803 124.637 54.3435C124.871 54.1659 125.129 53.7616 125.129 53.5288C125.129 53.3879 124.803 53.3083 124.803 53.1613C124.803 53.0081 125.135 52.7264 125.246 52.7264C125.363 52.7264 125.671 53.0143 125.671 53.1674C125.671 53.5717 125.289 54.1291 124.803 54.4538ZM129.997 53.6268C128.963 53.6268 127.548 53.0204 127.548 51.4584C127.548 50.3864 128.212 49.1429 129.911 49.1429C130.612 49.1429 131.234 49.3573 131.16 49.5717L131.086 49.7983C130.896 50.3803 130.612 49.5901 129.56 49.5901C128.662 49.5901 128.169 50.1659 128.169 51.097C128.169 52.4691 129.216 53.0878 130.12 53.0878C130.225 53.0878 130.729 53.0081 131.111 52.7693C131.16 52.7386 131.277 52.8611 131.24 52.9163C130.976 53.2961 130.169 53.6268 129.997 53.6268ZM134.102 53.6268C132.822 53.6268 131.893 52.6774 131.893 51.4032C131.893 50.172 132.766 49.1429 134.114 49.1429C135.4 49.1429 136.323 50.0924 136.323 51.3604C136.323 52.5977 135.456 53.6268 134.102 53.6268ZM134.33 53.2532C134.896 53.2532 135.69 52.8918 135.69 51.6789C135.69 50.4109 134.816 49.5165 133.893 49.5165C133.32 49.5165 132.533 49.878 132.533 51.0847C132.533 52.365 133.4 53.2532 134.33 53.2532ZM142.324 53.3389C142.373 53.3451 142.336 53.5288 142.287 53.5288H140.797C140.754 53.5288 140.717 53.3451 140.761 53.3389C140.988 53.3022 141.191 53.198 141.173 52.7876L141.062 50.5702L139.985 52.7509C139.874 52.9775 139.764 53.2532 139.745 53.3634C139.733 53.4308 139.628 53.4737 139.542 53.4737C139.456 53.4737 139.407 53.4369 139.37 53.3634L137.905 50.5947L137.813 52.7876C137.794 53.198 138.003 53.3144 138.225 53.3389C138.274 53.3451 138.237 53.5288 138.194 53.5288H136.97C136.92 53.5288 136.883 53.3451 136.933 53.3389C137.197 53.3083 137.431 53.2164 137.45 52.7876L137.634 49.247C137.64 49.1551 137.85 49.149 137.899 49.247L139.69 52.6161L141.364 49.247C141.413 49.149 141.622 49.1551 141.628 49.247L141.813 52.7876C141.831 53.2164 142.053 53.3083 142.324 53.3389ZM146.404 50.5395C146.404 51.6483 145.376 52.0832 144.022 51.8688V52.7876C144.022 53.2164 144.305 53.2899 144.718 53.3389C144.761 53.3451 144.73 53.5288 144.681 53.5288H142.902C142.853 53.5288 142.816 53.3451 142.865 53.3389C143.167 53.2961 143.382 53.1858 143.382 52.7876V50.0188C143.382 49.6146 143.167 49.4982 142.865 49.4185C142.816 49.4063 142.847 49.2225 142.902 49.2286C143.148 49.2593 143.419 49.2654 143.604 49.2654C144.016 49.2654 144.385 49.2286 144.705 49.2286C145.622 49.2286 146.404 49.5717 146.404 50.5395ZM144.576 49.5227C144.145 49.5227 144.022 49.6636 144.022 50.0188V51.5993C145.111 51.7463 145.715 51.5257 145.715 50.6743C145.715 49.878 145.191 49.5227 144.576 49.5227ZM151.481 53.3328C151.567 53.3451 151.542 53.5288 151.469 53.5288H149.936C149.856 53.5288 149.844 53.3451 149.918 53.3328C150.152 53.2961 150.385 53.2042 150.158 52.6712L150.065 52.4568C150.01 52.316 149.875 52.3098 149.678 52.3098H148.398C148.213 52.3098 148.078 52.316 148.022 52.4568L147.936 52.6712C147.708 53.2164 147.942 53.2899 148.25 53.3328C148.324 53.3451 148.312 53.5288 148.232 53.5288H146.933C146.853 53.5288 146.835 53.3451 146.915 53.3328C147.173 53.2961 147.321 53.198 147.548 52.6712L148.588 50.3129C148.828 49.7738 148.902 49.5043 148.902 49.2715C148.902 49.2348 149.339 49.1368 149.358 49.1796L150.859 52.6651C151.087 53.198 151.235 53.2961 151.481 53.3328ZM149.678 51.9974C149.77 51.9974 149.875 51.9852 149.838 51.9055L149.05 50.0433L148.262 51.9055C148.225 51.9852 148.324 51.9974 148.416 51.9974H149.678ZM156.318 53.3879C156.367 53.3879 156.361 53.5411 156.318 53.5595C155.973 53.6881 155.463 53.6452 155.124 53.2103L154.164 51.9852C153.906 51.6544 153.567 51.5931 153.118 51.587V52.7876C153.118 53.2164 153.401 53.2899 153.813 53.3389C153.856 53.3451 153.826 53.5288 153.776 53.5288H151.998C151.949 53.5288 151.912 53.3451 151.961 53.3389C152.262 53.2961 152.478 53.1858 152.478 52.7876V50.0188C152.478 49.6146 152.262 49.4982 151.961 49.4185C151.912 49.4063 151.942 49.2225 151.998 49.2286C152.244 49.2593 152.515 49.2654 152.699 49.2654C153.112 49.2654 153.506 49.2286 153.789 49.2286C154.669 49.2286 155.315 49.5962 155.315 50.3619C155.315 51.0908 154.706 51.44 154.238 51.4706V51.5012C154.466 51.5012 154.619 51.5993 154.878 51.9239L155.826 53.1C155.998 53.3206 156.164 53.3879 156.318 53.3879ZM153.309 51.3236C154.232 51.3236 154.638 51.1643 154.638 50.5211C154.638 49.8535 154.195 49.5227 153.629 49.5227C153.253 49.5227 153.118 49.6697 153.118 50.0188V51.3236H153.309ZM156.663 53.5411C156.601 53.5472 156.576 53.3573 156.626 53.3451C156.989 53.2532 157.266 53.198 157.266 52.7447V50.0005C157.266 49.5901 157.013 49.4859 156.743 49.4185C156.693 49.4063 156.718 49.2225 156.779 49.2286C157.229 49.2654 157.887 49.2654 158.343 49.2654C158.903 49.2654 159.321 49.2409 159.807 49.2286C159.949 49.2286 159.949 49.3267 159.918 49.4614L159.764 50.0433C159.746 50.123 159.598 50.123 159.573 50.0433C159.487 49.7554 159.29 49.5533 158.509 49.5533C158.047 49.5533 157.906 49.6636 157.906 50.0005V51.0173C157.906 51.1766 157.986 51.2072 158.109 51.2072H158.226C158.773 51.2072 159.186 51.1705 159.456 50.9132C159.512 50.8581 159.641 50.8703 159.592 50.9867L159.229 51.7585C159.186 51.8627 159.1 51.8504 159.032 51.7585C158.884 51.5686 158.564 51.4951 158.176 51.4951H158.109C157.986 51.4951 157.906 51.5257 157.906 51.685V52.7447C157.906 53.1 158.066 53.2164 158.595 53.2164C159.592 53.2164 159.912 52.8183 160.066 52.561C160.115 52.4813 160.263 52.4997 160.263 52.6161C160.263 52.953 160.004 53.535 159.629 53.5411C159.333 53.5227 158.94 53.5043 158.41 53.5043C157.844 53.5043 157.229 53.4859 156.663 53.5411ZM164.534 51.195C165.094 51.195 165.641 51.6115 165.641 52.2976C165.641 53.0449 164.983 53.5411 163.93 53.5411C163.629 53.5411 163.26 53.5043 162.847 53.5043C162.509 53.5043 162.214 53.5105 161.924 53.5411C161.863 53.5472 161.838 53.3573 161.887 53.3451C162.25 53.2532 162.527 53.198 162.527 52.7447V50.0005C162.527 49.5901 162.275 49.4859 162.004 49.4185C161.955 49.4063 161.986 49.2225 162.035 49.2286C162.294 49.2593 162.57 49.2654 162.755 49.2654C163.186 49.2654 163.555 49.2286 163.826 49.2286C164.638 49.2286 165.297 49.5656 165.303 50.2394C165.303 50.7539 164.921 51.0847 164.534 51.1643V51.195ZM163.654 49.5227C163.284 49.5227 163.167 49.6391 163.167 50.0005V51.1031H163.826C164.312 51.1031 164.644 50.9009 164.644 50.3803C164.644 49.7493 164.17 49.5227 163.654 49.5227ZM163.943 53.247C164.571 53.247 164.952 53.0572 164.952 52.414C164.952 51.6544 164.423 51.3849 163.826 51.3849H163.167V52.7447C163.167 53.0878 163.352 53.247 163.943 53.247ZM166.287 53.5288C166.238 53.5288 166.201 53.3451 166.251 53.3389C166.552 53.2961 166.768 53.1858 166.768 52.7876V49.9821C166.768 49.5839 166.552 49.4737 166.251 49.4308C166.201 49.4247 166.238 49.2409 166.287 49.2409H167.881C167.931 49.2409 167.968 49.4247 167.918 49.4308C167.654 49.4675 167.408 49.5533 167.408 49.9821V52.7876C167.408 53.2164 167.654 53.3022 167.918 53.3389C167.968 53.3451 167.931 53.5288 167.881 53.5288H166.287ZM168.404 53.5411C168.343 53.5472 168.318 53.3573 168.368 53.3451C168.731 53.2532 169.008 53.198 169.008 52.7447V50.0005C169.008 49.5901 168.755 49.4859 168.484 49.4185C168.435 49.4063 168.46 49.2225 168.521 49.2286C168.774 49.2593 169.032 49.2654 169.241 49.2654C169.672 49.2654 170.103 49.2286 170.423 49.2286C171.943 49.2286 172.718 50.1046 172.718 51.2991C172.718 52.4936 171.918 53.5411 170.417 53.5411C170.121 53.5411 169.74 53.5043 169.328 53.5043C168.995 53.5043 168.694 53.5105 168.404 53.5411ZM170.435 53.2409C171.5 53.2409 172.078 52.6712 172.078 51.5931C172.078 50.4599 171.426 49.5288 170.257 49.5288C169.783 49.5288 169.648 49.6697 169.648 50.0005V52.7447C169.648 53.0817 169.832 53.2409 170.435 53.2409ZM174.583 53.6268C174.072 53.6268 173.334 53.3941 173.402 53.1368L173.457 52.9224C173.623 52.3282 173.808 53.2225 174.823 53.2225C175.359 53.2225 175.66 52.9653 175.66 52.5794C175.66 52.2608 175.426 52.1199 175.032 51.8872L174.343 51.4706C173.715 51.0908 173.469 50.8213 173.469 50.3986C173.469 49.6697 174.171 49.1429 174.952 49.1429C175.426 49.1429 176.005 49.3389 175.943 49.5472L175.869 49.7738C175.697 50.3251 175.537 49.541 174.694 49.541C174.22 49.541 173.98 49.7861 173.98 50.1169C173.98 50.3864 174.146 50.5457 174.559 50.7968L175.279 51.2256C175.906 51.5993 176.159 51.881 176.159 52.3037C176.159 53.051 175.408 53.6268 174.583 53.6268ZM176.854 54.4538C176.792 54.4967 176.639 54.3803 176.688 54.3435C176.922 54.1659 177.18 53.7616 177.18 53.5288C177.18 53.3879 176.854 53.3083 176.854 53.1613C176.854 53.0081 177.186 52.7264 177.297 52.7264C177.414 52.7264 177.722 53.0143 177.722 53.1674C177.722 53.5717 177.34 54.1291 176.854 54.4538ZM184.128 53.3389C184.177 53.3451 184.14 53.5288 184.091 53.5288H182.491C182.442 53.5288 182.405 53.3451 182.454 53.3389C182.762 53.2961 182.971 53.1858 182.971 52.7876V51.6911C182.94 51.587 182.811 51.587 182.694 51.587H180.965C180.848 51.587 180.719 51.587 180.688 51.6911V52.7876C180.688 53.2164 180.934 53.3022 181.199 53.3389C181.248 53.3451 181.211 53.5288 181.162 53.5288H179.568C179.519 53.5288 179.482 53.3451 179.531 53.3389C179.833 53.2961 180.048 53.1858 180.048 52.7876V49.9821C180.048 49.5839 179.833 49.4737 179.531 49.4308C179.482 49.4247 179.519 49.2409 179.568 49.2409H181.162C181.211 49.2409 181.248 49.4247 181.199 49.4308C180.934 49.4675 180.688 49.5533 180.688 49.9821V51.146C180.719 51.2501 180.848 51.2501 180.965 51.2501H182.694C182.811 51.2501 182.94 51.2501 182.971 51.146V49.9821C182.971 49.5839 182.762 49.4737 182.454 49.4308C182.405 49.4247 182.442 49.2409 182.491 49.2409H184.091C184.14 49.2409 184.177 49.4247 184.128 49.4308C183.857 49.4675 183.611 49.5533 183.611 49.9821V52.7876C183.611 53.2164 183.857 53.3022 184.128 53.3389ZM184.707 53.5288C184.657 53.5288 184.62 53.3451 184.67 53.3389C184.971 53.2961 185.187 53.1858 185.187 52.7876V49.9821C185.187 49.5839 184.971 49.4737 184.67 49.4308C184.62 49.4247 184.657 49.2409 184.707 49.2409H186.3C186.35 49.2409 186.387 49.4247 186.337 49.4308C186.073 49.4675 185.827 49.5533 185.827 49.9821V52.7876C185.827 53.2164 186.073 53.3022 186.337 53.3389C186.387 53.3451 186.35 53.5288 186.3 53.5288H184.707ZM191.236 53.3879C191.285 53.3879 191.279 53.5411 191.236 53.5595C190.891 53.6881 190.381 53.6452 190.042 53.2103L189.082 51.9852C188.824 51.6544 188.485 51.5931 188.036 51.587V52.7876C188.036 53.2164 188.319 53.2899 188.731 53.3389C188.774 53.3451 188.744 53.5288 188.694 53.5288H186.916C186.867 53.5288 186.83 53.3451 186.879 53.3389C187.18 53.2961 187.396 53.1858 187.396 52.7876V50.0188C187.396 49.6146 187.18 49.4982 186.879 49.4185C186.83 49.4063 186.86 49.2225 186.916 49.2286C187.162 49.2593 187.433 49.2654 187.617 49.2654C188.03 49.2654 188.424 49.2286 188.707 49.2286C189.587 49.2286 190.233 49.5962 190.233 50.3619C190.233 51.0908 189.624 51.44 189.156 51.4706V51.5012C189.384 51.5012 189.537 51.5993 189.796 51.9239L190.744 53.1C190.916 53.3206 191.082 53.3879 191.236 53.3879ZM188.227 51.3236C189.15 51.3236 189.556 51.1643 189.556 50.5211C189.556 49.8535 189.113 49.5227 188.547 49.5227C188.171 49.5227 188.036 49.6697 188.036 50.0188V51.3236H188.227ZM191.581 53.5411C191.519 53.5472 191.494 53.3573 191.544 53.3451C191.907 53.2532 192.184 53.198 192.184 52.7447V50.0005C192.184 49.5901 191.931 49.4859 191.661 49.4185C191.611 49.4063 191.636 49.2225 191.698 49.2286C192.147 49.2654 192.805 49.2654 193.261 49.2654C193.821 49.2654 194.239 49.2409 194.725 49.2286C194.867 49.2286 194.867 49.3267 194.836 49.4614L194.682 50.0433C194.664 50.123 194.516 50.123 194.491 50.0433C194.405 49.7554 194.208 49.5533 193.427 49.5533C192.965 49.5533 192.824 49.6636 192.824 50.0005V51.0173C192.824 51.1766 192.904 51.2072 193.027 51.2072H193.144C193.691 51.2072 194.104 51.1705 194.375 50.9132C194.43 50.8581 194.559 50.8703 194.51 50.9867L194.147 51.7585C194.104 51.8627 194.018 51.8504 193.95 51.7585C193.802 51.5686 193.482 51.4951 193.095 51.4951H193.027C192.904 51.4951 192.824 51.5257 192.824 51.685V52.7447C192.824 53.1 192.984 53.2164 193.513 53.2164C194.51 53.2164 194.83 52.8183 194.984 52.561C195.033 52.4813 195.181 52.4997 195.181 52.6161C195.181 52.953 194.922 53.535 194.547 53.5411C194.251 53.5227 193.858 53.5043 193.328 53.5043C192.762 53.5043 192.147 53.4859 191.581 53.5411ZM196.196 53.5901C196.085 53.5901 195.765 53.3206 195.765 53.1552C195.765 52.9959 196.085 52.7264 196.196 52.7264C196.307 52.7264 196.627 52.9959 196.627 53.1552C196.627 53.3206 196.307 53.5901 196.196 53.5901Z" fill="url(#paint2_linear_20_6)"/>
<defs>
<linearGradient id="paint0_linear_20_6" x1="28.3159" y1="1" x2="85.7296" y2="1" gradientUnits="userSpaceOnUse">
<stop stop-color="#2D388A"/>
<stop offset="1" stop-color="#00AEEF"/>
</linearGradient>
<linearGradient id="paint1_linear_20_6" x1="103.428" y1="33.0732" x2="186.986" y2="33.0732" gradientUnits="userSpaceOnUse">
<stop stop-color="#0E8AD0"/>
<stop offset="0.5" stop-color="#1B67B2"/>
<stop offset="1" stop-color="#00AEEF"/>
</linearGradient>
<linearGradient id="paint2_linear_20_6" x1="93.7866" y1="49.1429" x2="196.627" y2="49.1429" gradientUnits="userSpaceOnUse">
<stop stop-color="#0E8AD0"/>
<stop offset="0.5" stop-color="#1B67B2"/>
<stop offset="1" stop-color="#00AEEF"/>
</linearGradient>
</defs>
</svg>
